<?xml version="1.0" encoding="utf-8"?>
<!-- Generator: Adobe Illustrator 19.0.0, SVG Export Plug-In . SVG Version: 6.00 Build 0)  -->
<svg version="1.1" id="Camada_1" xmlns="http://www.w3.org/2000/svg" xmlns:xlink="http://www.w3.org/1999/xlink" x="0px" y="0px"
	 viewBox="0 0 1920 1172" style="enable-background:new 0 0 1920 1172;" xml:space="preserve">
<style type="text/css">
	.st0{clip-path:url(#XMLID_21_);fill:url(#XMLID_22_);}
	.st1{opacity:8.000000e-02;clip-path:url(#XMLID_21_);fill:url(#XMLID_23_);}
	.st2{opacity:8.000000e-02;clip-path:url(#XMLID_21_);fill:url(#XMLID_24_);}
	.st3{opacity:8.000000e-02;clip-path:url(#XMLID_21_);fill:url(#XMLID_25_);}
</style>
<g id="XMLID_2_">
	<defs>
		<path id="XMLID_3_" d="M0,5.3c0,0,109-14,194.3,3.3s241.3,70,372.7,66.7C698.3,72,779.7,54,831,40.7s160.7-36,276.7-37.3
			s204,13.3,382.7,85.3c83.2,33.5,193.4,31.7,277.3,24c37.9-3.5,126.7-4,152.3,2.7V1172H0V5.3z"/>
	</defs>
	<clipPath id="XMLID_21_">
		<use xlink:href="#XMLID_3_"  style="overflow:visible;"/>
	</clipPath>
	<linearGradient id="XMLID_22_" gradientUnits="userSpaceOnUse" x1="170.5" y1="-236.4925" x2="1749.5" y2="1342.5074">
		<stop  offset="0.3456" style="stop-color:#A4CD39"/>
		<stop  offset="1" style="stop-color:#FBED21"/>
	</linearGradient>
	<rect id="XMLID_7_" y="-66" class="st0" width="1920" height="1238"/>
	<linearGradient id="XMLID_23_" gradientUnits="userSpaceOnUse" x1="0" y1="118.0628" x2="1602.3334" y2="118.0628">
		<stop  offset="0" style="stop-color:#233974"/>
		<stop  offset="1" style="stop-color:#27B6EA"/>
	</linearGradient>
	<path id="XMLID_6_" class="st1" d="M0,287.3c0,0,239-62,358.3-48S779.7,312,931,300.7s333.3-30,671.3-189.3V-66H0V287.3z"/>
	<linearGradient id="XMLID_24_" gradientUnits="userSpaceOnUse" x1="0" y1="150.2468" x2="1920" y2="150.2468">
		<stop  offset="0" style="stop-color:#1D2251"/>
		<stop  offset="1" style="stop-color:#3D2262"/>
	</linearGradient>
	<path id="XMLID_5_" class="st2" d="M0,331c0,0,180,44,302,34s219-23,424-183s328-48,488,0s393,113,706-50V-66H0V331z"/>
	<linearGradient id="XMLID_25_" gradientUnits="userSpaceOnUse" x1="1281" y1="98.1557" x2="1920" y2="98.1557">
		<stop  offset="0" style="stop-color:#F9A61B"/>
		<stop  offset="1" style="stop-color:#FDDB00"/>
	</linearGradient>
	<path id="XMLID_4_" class="st3" d="M1281,9c0,0,272,371,639,215V-66h-639V9z"/>
</g>
</svg>
